<?xml version="1.0" encoding="UTF-8"?>
<svg width="50px" height="50px" viewBox="0 0 50 50" version="1.1" xmlns="http://www.w3.org/2000/svg" xmlns:xlink="http://www.w3.org/1999/xlink">
    <!-- Generator: sketchtool 50.2 (55047) - http://www.bohemiancoding.com/sketch -->
    <title>86E7593A-6400-4FDF-BC71-A985FF529B29</title>
    <desc>Created with sketchtool.</desc>
    <defs></defs>
    <g id="concept" stroke="none" stroke-width="1" fill="none" fill-rule="evenodd">
        <g id="landing" transform="translate(-50.000000, -35.000000)" fill="#3d4591" fill-rule="nonzero">
            <g id="first">
                <g id="header">
                    <g id="logo" transform="translate(50.000000, 35.000000)">
                        <g id="pts_techno">
                            <path d="M16.1870173,30.7745484 L14.3218344,28.8491984 C13.115576,27.6040283 13.1313101,25.6214098 14.3571787,24.3955412 L18.881204,19.871516 C19.4179177,20.1072529 20.0111392,20.2380952 20.6349206,20.2380952 C23.0456874,20.2380952 25,18.2837826 25,15.8730159 C25,13.4622491 23.0456874,11.5079365 20.6349206,11.5079365 C18.2241539,11.5079365 16.2698413,13.4622491 16.2698413,15.8730159 C16.2698413,16.4967973 16.4006837,17.0900188 16.6364206,17.6267325 L12.1123953,22.1507578 C9.66065806,24.602495 9.62918988,28.5677321 12.0417068,31.0580721 L13.9419512,33.0196146 L5.86811544,41.0934504 C2.20629117,36.7447792 0,31.1300431 0,25 C0,11.1928813 11.1928813,0 25,0 C38.8071187,0 50,11.1928813 50,25 C50,38.8071187 38.8071187,50 25,50 C18.465583,50 12.5167006,47.4930282 8.06270067,43.3884321 L16.1511031,35.3000296 L17.7898106,36.9915986 C20.2187224,39.4988624 24.2161519,39.5750031 26.7387812,37.1620534 L31.5522998,32.5578181 C32.0961745,32.8011802 32.6989502,32.9365079 33.3333333,32.9365079 C35.7441001,32.9365079 37.6984127,30.9821953 37.6984127,28.5714286 C37.6984127,26.1606618 35.7441001,24.2063492 33.3333333,24.2063492 C30.9225666,24.2063492 28.968254,26.1606618 28.968254,28.5714286 C28.968254,29.1844718 29.0946303,29.7679982 29.3227522,30.297377 L24.5444236,34.8679523 C23.2831089,36.0744271 21.2843942,36.0363567 20.0699383,34.7827248 L18.3961693,33.0549633 L33.4508073,18.0003253 C33.9100852,18.1645327 34.4049157,18.2539683 34.9206349,18.2539683 C37.3314017,18.2539683 39.2857143,16.2996556 39.2857143,13.8888889 C39.2857143,11.4781221 37.3314017,9.52380952 34.9206349,9.52380952 C32.5098682,9.52380952 30.5555556,11.4781221 30.5555556,13.8888889 C30.5555556,14.618432 30.7345277,15.3061739 31.0509616,15.9106041 L16.1870173,30.7745484 Z M33.3333333,29.7619048 C32.6758515,29.7619048 32.1428571,29.2289104 32.1428571,28.5714286 C32.1428571,27.9139467 32.6758515,27.3809524 33.3333333,27.3809524 C33.9908152,27.3809524 34.5238095,27.9139467 34.5238095,28.5714286 C34.5238095,29.2289104 33.9908152,29.7619048 33.3333333,29.7619048 Z M20.6349206,17.0634921 C19.9774388,17.0634921 19.4444444,16.5304977 19.4444444,15.8730159 C19.4444444,15.215534 19.9774388,14.6825397 20.6349206,14.6825397 C21.2924025,14.6825397 21.8253968,15.215534 21.8253968,15.8730159 C21.8253968,16.5304977 21.2924025,17.0634921 20.6349206,17.0634921 Z M34.9206349,15.0793651 C34.2631531,15.0793651 33.7301587,14.5463707 33.7301587,13.8888889 C33.7301587,13.2314071 34.2631531,12.6984127 34.9206349,12.6984127 C35.5781167,12.6984127 36.1111111,13.2314071 36.1111111,13.8888889 C36.1111111,14.5463707 35.5781167,15.0793651 34.9206349,15.0793651 Z" id="symbol"></path>
                        </g>
                    </g>
                </g>
            </g>
        </g>
    </g>
</svg>